<svg xmlns="http://www.w3.org/2000/svg" width="640" height="480" viewBox="0 0 640 480" class="undefined">
<style>
  .a{
    fill:#006837;
    stroke:#0071BC;
  }
  .b{
    fill:#FCEE21;
  }
  .c{
    fill:#F7931E;
  }
  text {
  fill: #489065;
  }
</style>
<text x="0" y="50">Hello World</text>
<text x="0" y="80">How's it going?</text>
    <rect x="312.5" y="268.5" width="14" height="209" class="a"/>
    <ellipse transform="matrix(0.8478 -0.5303 0.5303 0.8478 -50.4645 231.7126)" cx="378.4" cy="203.8" rx="38.6" ry="9.6" class="b"/>
    <ellipse transform="matrix(0.8478 -0.5303 0.5303 0.8478 -106.1949 181.467)" cx="263" cy="275.7" rx="38.6" ry="9.6" class="b"/>
    <ellipse transform="matrix(-0.5303 -0.8478 0.8478 -0.5303 281.4227 520.0029)" cx="284.7" cy="182" rx="38.6" ry="9.6" class="b"/>
    <ellipse transform="matrix(-0.5303 -0.8478 0.8478 -0.5303 293.7139 757.6147)" cx="356.7" cy="297.5" rx="38.6" ry="9.6" class="b"/>
    <ellipse transform="matrix(-0.9745 -0.2245 0.2245 -0.9745 450.3189 501.0382)" cx="253.6" cy="224.9" rx="38.6" ry="9.6" class="b"/>
    <ellipse transform="matrix(-0.9745 -0.2245 0.2245 -0.9745 705.016 591.4255)" cx="386.1" cy="255.6" rx="38.6" ry="9.6" class="b"/>
    <ellipse transform="matrix(-0.2245 0.9745 -0.9745 -0.2245 671.5826 78.5765)" cx="304.5" cy="306.5" rx="38.6" ry="9.6" class="b"/>
    <ellipse transform="matrix(-0.2245 0.9745 -0.9745 -0.2245 580.0925 -113.5786)" cx="335.2" cy="174" rx="38.6" ry="9.6" class="b"/>
    <ellipse transform="matrix(0.5737 -0.8191 0.8191 0.5737 1.9234 373.7194)" cx="360" cy="185" rx="38.6" ry="9.6" class="b"/>
    <ellipse transform="matrix(0.5737 -0.8191 0.8191 0.5737 -122.5539 357.12)" cx="281.8" cy="296.3" rx="38.6" ry="9.6" class="b"/>
    <ellipse transform="matrix(-0.8191 -0.5737 0.5737 -0.8191 366.8602 518.825)" cx="265.2" cy="201.6" rx="38.6" ry="9.6" class="b"/>
    <ellipse transform="matrix(-0.8191 -0.5737 0.5737 -0.8191 524.4322 724.8875)" cx="376.5" cy="279.7" rx="38.6" ry="9.6" class="b"/>
    <ellipse transform="matrix(-0.9848 0.1735 -0.1735 -0.9848 546.7383 458.5548)" cx="253.3" cy="253.2" rx="38.6" ry="9.6" class="b"/>
    <ellipse transform="matrix(-0.9848 0.1735 -0.1735 -0.9848 808.5886 388.8557)" cx="387.3" cy="229.8" rx="38.6" ry="9.6" class="b"/>
    <ellipse transform="matrix(0.1735 0.9848 -0.9848 0.1735 578.1943 -72.0376)" cx="332" cy="308.5" rx="38.6" ry="9.6" class="b"/>
    <ellipse transform="matrix(0.1735 0.9848 -0.9848 0.1735 426.9144 -159.7156)" cx="308.6" cy="174.5" rx="38.6" ry="9.6" class="b"/>
    <ellipse transform="matrix(0.97 -0.2432 0.2432 0.97 -48.8143 85.0727)" cx="320.2" cy="240.3" rx="30.5" ry="31.6" class="c"/>
</svg>
